<svg xmlns="http://www.w3.org/2000/svg" viewBox="0 0 512 512" style="height: 271px; width: 271px;"><defs><filter id="shadow-1" height="300%" width="300%" x="-100%" y="-100%"><feFlood flood-color="rgba(245, 200, 35, 1)" result="flood"></feFlood><feComposite in="flood" in2="SourceGraphic" operator="atop" result="composite"></feComposite><feGaussianBlur in="composite" stdDeviation="10" result="blur"></feGaussianBlur><feOffset dy="0" result="offset"></feOffset><feComposite in="SourceGraphic" in2="offset" operator="over"></feComposite></filter></defs><path d="M10 10h492v492H10z" fill="#3E320A" fill-opacity="1" stroke="#461c1c" stroke-opacity="1" stroke-width="10"></path><g class="" transform="translate(0,0)" style=""><path d="M151 32v247h18V32h-18zm247 9.574l-13.428 7.59c-31.626 17.876-61.492 12.267-93.138 4.356-31.647-7.912-64.83-18.84-97.946-4.807L188 51.039V166.588l12.512-5.3c25.883-10.968 54.201-2.396 86.554 5.692 32.354 8.089 68.988 14.98 106.362-6.144l4.572-2.584V41.574zM73 297v67.271l32 32V487h302v-90.729l32-32V297h-46v39h-18v-39h-46v39h-18v-39h-46v39h-18v-39h-46v39h-18v-39h-46v39h-18v-39H73z" fill="#F5C823" fill-opacity="1" stroke="#F3D771" stroke-opacity="1" stroke-width="2" filter="url(#shadow-1)"></path></g></svg>